<?xml version="1.0" encoding="UTF-8"?>
<svg id="Ebene_2" data-name="Ebene 2" xmlns="http://www.w3.org/2000/svg" width="217.31mm" height="217.31mm" viewBox="0 0 616 616">
  <defs>
    <style>
      .cls-1 {
        fill: #7ac09c;
      }

      .cls-1, .cls-2 {
        stroke-width: 0px;
      }

      .cls-2 {
        fill: #fff;
      }
    </style>
  </defs>
  <g id="Layer_1" data-name="Layer 1">
    <circle class="cls-1" cx="308" cy="308" r="308"/>
    <g>
      <g>
        <path class="cls-2" d="m118.04,221.92c.8.6,1.5,1.39,2.1,2.37.6.98,1.05,2.09,1.36,3.33.3,1.24.46,2.56.45,3.96,0,1.4-.21,2.82-.62,4.27-.73,2.6-1.84,4.84-3.33,6.75s-3.21,3.41-5.16,4.52c-1.95,1.11-4.07,1.8-6.34,2.07-2.27.26-4.58.06-6.93-.6-1.97-.56-3.79-1.4-5.47-2.55-1.68-1.14-3.06-2.56-4.16-4.26-1.1-1.69-1.84-3.65-2.21-5.86-.38-2.21-.25-4.66.38-7.34.3-1.29.67-2.36,1.12-3.21.45-.86.95-1.65,1.51-2.38.57-.73,1.19-1.44,1.87-2.14.68-.69,1.41-1.53,2.18-2.49l8.17,9.4c-.07.23-.33.22-.81-.04s-1.05-.63-1.72-1.12c-.68-.49-1.41-1.04-2.21-1.65-.79-.61-1.55-1.18-2.26-1.69-.71-.51-1.34-.91-1.88-1.21-.54-.29-.9-.35-1.07-.19-.37.33-.79.77-1.24,1.31-.45.54-.88,1.13-1.29,1.76-.41.63-.79,1.27-1.13,1.93-.34.65-.59,1.27-.75,1.84-.97,3.43-.44,6.36,1.57,8.78,2.02,2.42,5.41,4.31,10.19,5.65,3.07.86,5.76,1.26,8.07,1.18,2.32-.08,4.3-.49,5.95-1.24,1.65-.75,2.98-1.78,3.99-3.1,1.01-1.32,1.75-2.8,2.21-4.44.28-.98.48-2.07.61-3.26s.11-2.4-.06-3.62c-.17-1.21-.54-2.37-1.11-3.46-.57-1.09-1.41-2.03-2.53-2.82l.55-.45Z"/>
        <path class="cls-2" d="m118.86,194.48c-2.48-1.82-4.32-3.84-5.52-6.07-1.2-2.22-1.94-4.42-2.21-6.6s-.18-4.26.28-6.23c.46-1.97,1.11-3.64,1.95-5.03.84-1.38,2-2.68,3.48-3.91,1.48-1.22,3.19-2.11,5.13-2.67,1.94-.56,4.06-.64,6.38-.25,2.31.39,4.71,1.5,7.19,3.32,2.06,1.53,3.71,3.3,4.95,5.3,1.24,2,2.09,4.09,2.53,6.25.44,2.16.5,4.33.17,6.49-.33,2.17-1.05,4.16-2.16,5.98-1.09,1.79-2.48,3.26-4.16,4.41-1.68,1.15-3.51,1.91-5.49,2.26-1.98.36-4.04.29-6.2-.22-2.15-.5-4.26-1.52-6.32-3.05Zm14.58-23.97c-2.53-1.5-4.91-2.43-7.13-2.76-2.22-.33-4.22-.31-5.98.07-1.76.38-3.26,1.01-4.49,1.87s-2.13,1.76-2.69,2.68c-.56.92-.94,2.12-1.13,3.6-.19,1.48-.05,3.07.44,4.79.49,1.72,1.4,3.46,2.74,5.25,1.34,1.78,3.28,3.43,5.81,4.93,2.56,1.52,4.95,2.45,7.17,2.78,2.22.33,4.22.32,5.99-.04,1.77-.36,3.27-.98,4.5-1.84,1.23-.87,2.13-1.76,2.69-2.68s.94-2.13,1.15-3.62c.2-1.49.05-3.1-.45-4.82-.5-1.72-1.42-3.48-2.76-5.26-1.35-1.78-3.3-3.43-5.85-4.95Zm-8.49,11.52c.32-.47.54-.86.65-1.16s.13-.58.06-.83c-.07-.26-.26-.52-.55-.78-.3-.27-.67-.61-1.12-1.02.66.3,1.2.49,1.6.58.4.09.72.08.96-.02.24-.1.44-.28.61-.52.17-.25.36-.55.58-.91,0,.39.18.86.52,1.4.34.54.79,1.11,1.35,1.72.56.61,1.2,1.24,1.91,1.9.71.66,1.45,1.31,2.22,1.95-.69-.31-1.47-.65-2.34-1-.88-.36-1.73-.67-2.57-.93-.84-.27-1.61-.45-2.31-.54-.7-.09-1.22-.03-1.56.18Z"/>
        <path class="cls-2" d="m164.05,158.36l-.32-.32c.23-.23.46-.5.69-.81.22-.3.36-.67.42-1.08.06-.41-.02-.88-.22-1.4-.2-.52-.61-1.09-1.22-1.71l-17.17-17.32c-.61-.62-1.17-1.03-1.67-1.24-.5-.2-.95-.29-1.35-.25-.4.04-.77.17-1.1.39-.33.22-.61.45-.85.68l-.28-.29,6.26-6.2-.03.03,4.18-4.15c.81-.8,1.66-1.5,2.54-2.1.88-.6,1.55-1.01,1.99-1.25l6.29,3.92c-.26.25-.87.32-1.85.21-.98-.11-2.02-.26-3.14-.45-1.11-.19-2.16-.34-3.13-.45-.98-.11-1.58-.05-1.81.18l-5.05,5c-.07.4.03.9.3,1.48.26.59.71,1.2,1.35,1.84l7.46,7.52,3.96-3.93c.15-.15.1-.44-.16-.89-.25-.45-.55-.93-.87-1.45-.33-.52-.61-1.01-.86-1.47s-.28-.77-.11-.94l9.31,5.24c-.15.15-.56.21-1.24.18-.68-.02-1.4-.08-2.18-.16-.77-.08-1.49-.13-2.16-.17-.67-.04-1.08.02-1.23.17l-3.96,3.92,9.2,9.29c.61.62,1.17,1.04,1.68,1.25.51.22.97.3,1.38.25.41-.05.78-.19,1.09-.41.31-.22.58-.45.81-.68l.32.32-7.28,7.22Z"/>
        <path class="cls-2" d="m198.6,128.18l-.24-.38c.28-.17.57-.38.86-.63.29-.25.51-.57.65-.96.15-.39.19-.86.11-1.41s-.34-1.2-.8-1.94l-12.73-20.8c-.46-.74-.9-1.27-1.34-1.58-.44-.31-.86-.5-1.26-.55-.4-.05-.79-.01-1.16.13-.37.14-.7.3-.98.47l-.21-.35,7.52-4.6-.04.02,5.02-3.08c.97-.59,1.95-1.08,2.95-1.46,1-.38,1.74-.63,2.23-.76l5.22,5.26c-.31.19-.92.12-1.85-.22-.92-.33-1.91-.72-2.95-1.15-1.04-.44-2.03-.82-2.95-1.16-.92-.33-1.53-.41-1.81-.24l-6.06,3.71c-.16.38-.17.88-.05,1.51.12.63.42,1.33.89,2.1l5.53,9.03,4.76-2.91c.18-.11.2-.41.05-.9-.14-.49-.32-1.03-.51-1.61-.2-.58-.36-1.12-.5-1.63-.13-.5-.09-.81.11-.94l7.86,7.24c-.18.11-.6.07-1.25-.11-.65-.18-1.35-.4-2.08-.65-.74-.25-1.43-.48-2.07-.66-.64-.19-1.05-.23-1.23-.12l-4.76,2.91,6.83,11.15c.46.74.91,1.28,1.35,1.6.45.33.88.51,1.29.56s.8,0,1.15-.15c.35-.14.67-.3.95-.48l.23.38-8.74,5.35Z"/>
        <path class="cls-2" d="m244.93,70.37c1.08-.34,2.16-.58,3.24-.71,1.07-.13,1.86-.2,2.36-.2l3.8,6.37c-.34.11-.92-.11-1.74-.66-.82-.55-1.68-1.16-2.6-1.83-.92-.67-1.78-1.28-2.58-1.84-.8-.55-1.36-.78-1.67-.68l-8.53,2.68c-.24.33-.39.82-.44,1.46-.05.65.07,1.41.35,2.3l3.17,10.06,9.78-3.08c.2-.06.29-.35.27-.87s-.06-1.07-.13-1.68c-.07-.61-.1-1.17-.11-1.69,0-.52.1-.81.33-.88l5.91,8.91c-.23.07-.63-.06-1.21-.4-.58-.34-1.19-.72-1.85-1.14-.65-.42-1.27-.81-1.84-1.15-.58-.34-.97-.48-1.17-.41l-9.78,3.08,3.79,12.04c.29.92.76,1.64,1.41,2.16.65.52,1.3.85,1.94,1l10.21-3.21c.31-.1.64-.6.98-1.51.34-.91.7-1.9,1.07-2.98s.73-2.07,1.09-2.99c.36-.91.7-1.43,1.05-1.54l.54,7.39c-.41.29-1.1.68-2.05,1.19s-1.98.93-3.06,1.27l-18.36,5.78-.13-.43c.31-.1.64-.23.98-.4s.63-.43.87-.77c.24-.34.38-.79.43-1.34.05-.55-.06-1.24-.32-2.07l-7.32-23.26c-.26-.83-.57-1.45-.91-1.86-.35-.41-.71-.69-1.09-.84s-.76-.2-1.15-.16c-.4.04-.75.12-1.07.22l-.12-.39,15.7-4.94Z"/>
        <path class="cls-2" d="m301.93,60.78c1.14-.07,2.24-.03,3.32.1,1.07.13,1.85.26,2.34.39l2.12,7.1c-.36.02-.87-.33-1.53-1.06-.66-.73-1.35-1.53-2.07-2.41-.73-.88-1.41-1.68-2.05-2.41s-1.13-1.09-1.46-1.07l-8.93.51c-.31.26-.58.7-.78,1.31-.21.61-.28,1.39-.23,2.32l.6,10.53,10.24-.58c.21-.01.37-.27.47-.77.11-.5.2-1.06.29-1.66.09-.61.19-1.16.31-1.67.12-.5.3-.76.54-.78l3.55,10.09c-.24.01-.6-.22-1.08-.68-.48-.47-.98-.99-1.51-1.56-.53-.57-1.03-1.09-1.51-1.56-.48-.47-.82-.7-1.03-.69l-10.24.58.72,12.6c.06.96.33,1.77.84,2.44.5.66,1.05,1.14,1.64,1.44l10.68-.61c.33-.02.77-.43,1.33-1.23.56-.8,1.14-1.67,1.76-2.63.62-.95,1.22-1.83,1.79-2.63.57-.8,1.03-1.21,1.39-1.23l-1.29,7.3c-.47.18-1.23.39-2.28.65s-2.15.41-3.28.48l-19.21,1.09-.02-.45c.33-.02.68-.07,1.05-.15s.71-.26,1.03-.53c.31-.27.56-.67.74-1.19.18-.52.25-1.22.2-2.09l-1.39-24.35c-.05-.87-.19-1.55-.43-2.03-.24-.48-.52-.84-.85-1.08-.33-.24-.69-.38-1.08-.43-.39-.05-.76-.07-1.08-.05l-.02-.41,16.43-.93Z"/>
        <path class="cls-2" d="m385.7,108.4c1.84.49,3.52.44,5.04-.16,1.52-.6,2.92-1.51,4.2-2.74,1.28-1.23,2.44-2.65,3.48-4.25,1.04-1.6,2.02-3.16,2.93-4.67.28-.44.42-.83.43-1.17,0-.34-.16-.66-.5-.98-.34-.32-.87-.66-1.6-1.02-.73-.36-1.7-.79-2.92-1.29l.15-.38,10.66,4.35-.15.37c-1.41-.58-2.49-.88-3.22-.92-.73-.04-1.43.42-2.12,1.38-.95,1.37-1.93,2.87-2.96,4.52-1.03,1.64-2.19,3.12-3.51,4.43s-2.82,2.3-4.51,2.96c-1.69.66-3.69.68-6,.06-1.89-.51-3.52-1.24-4.89-2.19s-2.45-2-3.25-3.17c-.8-1.17-1.31-2.43-1.53-3.76-.22-1.34-.14-2.68.21-4.03.45-1.66,1.27-2.98,2.44-3.95,1.17-.97,2.49-1.65,3.97-2.06,1.47-.4,3-.58,4.59-.54,1.58.04,3.02.25,4.3.6.3.06.59.16.87.31.28.15.4.31.36.49l-.95.2-1.2-.63c-1.02-.12-2.02-.1-2.99.07-.98.17-1.89.52-2.74,1.05-.85.53-1.61,1.26-2.28,2.19-.67.93-1.19,2.09-1.57,3.5-.36,1.28-.57,2.52-.64,3.71-.07,1.19.08,2.29.45,3.3.37,1.01.98,1.89,1.85,2.66.87.76,2.06,1.35,3.57,1.77Zm16.57-23.38c-.35.7-.86,1.41-1.55,2.12-.68.71-1.15,1.19-1.41,1.44l-3.79-1.55c.1-.25.44-.4,1-.44.57-.04,1.21-.1,1.92-.17s1.4-.21,2.07-.42,1.14-.61,1.4-1.18c.59-1.22.54-2.32-.16-3.3-.7-.98-1.79-1.77-3.26-2.37-1.33-.54-2.56-.53-3.69.05-1.13.58-2.06,1.82-2.8,3.72l6.9,27.25c.23.94.5,1.7.79,2.27.3.58.62,1.04.96,1.39.34.35.7.61,1.09.78.38.17.78.34,1.2.51l-.03.43-11.7-4.77.03-.43c1,.41,1.83.71,2.49.92.66.2,1.16.27,1.5.2.34-.07.53-.33.58-.76.05-.43-.06-1.09-.31-1.98l-6.99-27.14c.46-1.14,1.08-2.02,1.85-2.63s1.61-1.02,2.52-1.24,1.85-.26,2.82-.14,1.89.36,2.75.71c1.67.68,2.88,1.6,3.66,2.76.77,1.16.83,2.48.16,3.96Z"/>
        <path class="cls-2" d="m486.45,139.94c.8.86,1.48,1.73,2.05,2.63.57.9.97,1.58,1.19,2.03l-4.11,6.17c-.25-.26-.3-.88-.16-1.85.14-.97.32-2.02.53-3.14.21-1.12.39-2.16.55-3.12.15-.96.11-1.56-.11-1.8l-4.05-4.34-20.41,19.03c-.64.59-1.07,1.14-1.3,1.64-.23.5-.33.96-.29,1.38.04.41.17.79.39,1.11.22.33.45.61.67.85l-.33.31-7.02-7.53.33-.31c.22.24.49.48.8.73.31.25.67.4,1.08.47.41.07.88,0,1.41-.18.53-.18,1.11-.57,1.75-1.17l20.41-19.03-3.74-4.01c-.22-.24-.82-.32-1.79-.23s-2.02.19-3.15.32-2.19.23-3.16.31c-.98.07-1.59-.02-1.84-.28l6.44-3.67c.44.25,1.08.69,1.94,1.32.86.63,1.68,1.37,2.45,2.2l9.47,10.16Z"/>
        <path class="cls-2" d="m517.11,184.65c.55,1,.99,2.01,1.33,3.04.34,1.03.56,1.79.65,2.28l-5.51,4.96c-.17-.32-.07-.93.31-1.83.38-.91.81-1.87,1.29-2.91.48-1.03.91-1.99,1.3-2.89.39-.89.5-1.49.34-1.77l-4.29-7.85c-.37-.18-.87-.22-1.52-.14-.64.08-1.37.34-2.19.79l-9.26,5.06,4.92,9c.1.18.4.22.9.1.5-.12,1.04-.27,1.63-.45.58-.18,1.13-.33,1.64-.43.51-.11.82-.06.93.16l-7.6,7.53c-.11-.21-.06-.63.16-1.26.22-.63.48-1.31.77-2.03.29-.72.55-1.4.76-2.03.22-.63.28-1.04.18-1.23l-4.92-9-11.08,6.05c-.84.46-1.46,1.06-1.84,1.8-.38.74-.59,1.44-.6,2.1l5.13,9.39c.16.29.71.51,1.68.67.96.16,2,.31,3.13.47,1.13.15,2.17.31,3.14.49.97.17,1.54.42,1.71.73l-7.15,1.96c-.36-.35-.88-.94-1.57-1.78-.68-.84-1.29-1.76-1.84-2.76l-9.23-16.89.4-.22c.16.29.35.58.59.88.23.3.54.53.92.7s.85.22,1.4.16c.55-.06,1.21-.3,1.97-.72l21.4-11.69c.76-.42,1.31-.84,1.65-1.26.33-.42.54-.83.61-1.23s.05-.79-.07-1.17c-.12-.38-.26-.71-.42-1l.36-.19,7.89,14.44Z"/>
        <path class="cls-2" d="m501.98,230.39c.09.35.21.72.38,1.11.16.39.4.76.72,1.09.32.34.75.64,1.3.9.55.26,1.26.42,2.14.48l22.01,1.91c.98.09,1.9,0,2.76-.3.86-.29,1.58-.75,2.16-1.38.58-.63.98-1.41,1.19-2.36.21-.95.16-2.03-.15-3.25l.39-.1,2.15,8.5-26.01,17.6c-.98.65-1.57,1.4-1.76,2.25-.19.85-.19,1.65,0,2.41l-.39.1-4.31-17.09.39-.1c.59,2.35,1.08,4.16,1.44,5.43.37,1.27.74,2.13,1.12,2.59.38.46.81.59,1.31.39s1.18-.58,2.06-1.15l4.83-3.17-2.75-10.9-5.95-.54c-1.17-.08-2.02.25-2.57.97-.55.72-.65,1.74-.32,3.05l-.39.1-2.13-8.46.39-.1Zm11.68,5.03l2.62,10.38,13.57-9.04-16.19-1.34Z"/>
      </g>
      <g>
        <path class="cls-2" d="m201.96,488.92c.67.49,1.27,1.02,1.8,1.59.54.57.91,1,1.13,1.3l-2.09,4.94c-.21-.15-.33-.59-.36-1.3s-.04-1.48-.05-2.3c0-.82-.01-1.59-.03-2.29-.02-.7-.13-1.13-.32-1.27l-5.23-3.84c-.3,0-.64.12-1.04.37-.4.25-.8.65-1.2,1.19l-4.52,6.16,5.99,4.39c.12.09.33.02.62-.21.29-.23.6-.5.93-.8.33-.3.64-.56.94-.79.3-.23.52-.29.66-.18l-2.67,7.28c-.14-.1-.23-.4-.28-.88-.05-.48-.09-1.01-.12-1.57s-.07-1.09-.12-1.57c-.05-.48-.14-.77-.26-.86l-5.99-4.39-5.41,7.37c-.41.56-.63,1.14-.66,1.75s.06,1.12.25,1.56l6.25,4.59c.19.14.63.12,1.31-.07.68-.19,1.41-.41,2.2-.66.79-.25,1.52-.46,2.21-.65.69-.18,1.14-.2,1.35-.04l-4.09,3.48c-.35-.12-.87-.35-1.57-.69-.71-.34-1.39-.76-2.06-1.25l-11.24-8.25.19-.26c.19.14.41.27.66.4s.52.18.82.18c.3,0,.62-.11.97-.32.34-.21.7-.57,1.07-1.08l10.46-14.24c.37-.51.61-.95.7-1.33.09-.38.1-.71.02-.99s-.21-.53-.4-.74c-.2-.21-.39-.39-.58-.53l.17-.24,9.61,7.05Z"/>
        <path class="cls-2" d="m223.3,506.5c-.43.91-.47,1.85-.12,2.84.35.99.89,1.99,1.61,3.02.72,1.03,1.54,2.08,2.46,3.15.91,1.07,1.72,2.14,2.42,3.22.7,1.08,1.21,2.16,1.51,3.24.3,1.08.21,2.15-.28,3.19-.46.96-1.09,1.72-1.91,2.26s-1.75.89-2.8,1.04c-1.05.16-2.16.12-3.34-.1-1.18-.22-2.37-.61-3.57-1.18-.33-.16-.81-.43-1.42-.81s-1.24-.8-1.9-1.24c-.66-.44-1.27-.88-1.85-1.31-.58-.43-1-.78-1.25-1.05l1.3-2.53c.76.36,1.35.85,1.76,1.45.41.6.77,1.23,1.07,1.88.3.65.63,1.26.97,1.83.34.57.85,1.01,1.51,1.33.8.38,1.63.64,2.47.77.84.13,1.64.12,2.39-.03s1.44-.44,2.06-.89c.62-.44,1.11-1.06,1.49-1.84.43-.9.48-1.83.16-2.78-.32-.95-.82-1.92-1.5-2.92-.68-1-1.46-2.01-2.32-3.05-.87-1.04-1.63-2.07-2.29-3.11-.66-1.04-1.14-2.07-1.41-3.11-.28-1.04-.18-2.05.29-3.06.36-.77.88-1.37,1.56-1.81.68-.44,1.43-.73,2.26-.86.83-.14,1.7-.13,2.61,0,.91.14,1.76.4,2.57.78.35.17.82.44,1.4.81s1.17.76,1.77,1.18c.6.41,1.14.82,1.63,1.2.49.39.8.69.95.9l-1.29,2.5c-.39-.19-.73-.55-1.01-1.09-.28-.54-.59-1.14-.9-1.78-.32-.64-.69-1.27-1.11-1.88-.42-.61-.96-1.07-1.63-1.38-.59-.28-1.2-.47-1.84-.57-.64-.1-1.25-.1-1.84,0s-1.11.29-1.58.59c-.47.3-.81.69-1.05,1.18Z"/>
        <path class="cls-2" d="m264.81,517.82c.81.22,1.57.51,2.27.85.69.34,1.19.61,1.5.8l-.19,5.37c-.25-.07-.52-.43-.8-1.08s-.57-1.37-.86-2.14c-.3-.77-.58-1.48-.85-2.13-.27-.65-.52-1.01-.75-1.07l-4.15-1.14-5.37,19.49c-.17.61-.23,1.11-.18,1.51s.16.72.34.96.4.42.66.54c.26.12.5.21.74.27l-.09.32-7.19-1.98.09-.31c.23.06.49.11.77.14.28.03.57,0,.85-.12.28-.11.55-.33.8-.64.26-.31.47-.77.63-1.38l5.37-19.49-3.83-1.06c-.23-.06-.63.11-1.2.53-.57.42-1.17.89-1.82,1.4-.65.51-1.26.97-1.84,1.39-.58.42-.99.59-1.24.52l2.58-4.71c.37-.01.93.01,1.7.08.77.07,1.55.21,2.35.43l9.71,2.67Z"/>
        <path class="cls-2" d="m293.04,535.39l-9.69-1,.1-.94,9.69,1-.1.94Z"/>
        <path class="cls-2" d="m324.72,543.81c.63-.04,1.12-.14,1.48-.32s.62-.39.79-.64.27-.52.29-.8c.03-.28.03-.55.02-.79l.32-.02.29,4.63-14.86.91-.14-2.25c-.05-.76.21-1.53.76-2.31.55-.78,1.25-1.59,2.09-2.44.84-.85,1.75-1.73,2.73-2.64.98-.91,1.88-1.88,2.71-2.9.83-1.02,1.51-2.11,2.03-3.27.53-1.16.75-2.39.67-3.69-.09-1.5-.47-2.69-1.13-3.56-.66-.88-1.78-1.27-3.34-1.17-1.13.07-2.1.42-2.92,1.05-.82.63-1.38,1.61-1.66,2.93l-2.44.15c.54-1.54,1.43-2.69,2.69-3.45,1.26-.77,2.69-1.2,4.29-1.29,2.19-.11,3.94.29,5.25,1.21,1.31.92,2.01,2.24,2.12,3.96.09,1.46-.18,2.78-.8,3.98-.62,1.19-1.43,2.3-2.42,3.31s-2.08,1.95-3.25,2.82c-1.18.87-2.27,1.7-3.27,2.51s-1.83,1.59-2.48,2.36c-.65.77-.95,1.57-.9,2.39l11.09-.68Z"/>
        <path class="cls-2" d="m351.69,516.91c2.43-.6,4.54-.04,6.35,1.68,1.81,1.72,3.18,4.45,4.1,8.19,2.07,8.3.58,13.08-4.48,14.33l-1.74.43c-2.24.55-4.21-.06-5.92-1.84-1.71-1.77-3.06-4.63-4.03-8.56-.96-3.87-1.09-6.99-.41-9.35.68-2.37,2.15-3.84,4.4-4.42l1.73-.46Zm5.82,23.59c.84-.21,1.49-.59,1.95-1.15s.78-1.22.97-1.99c.19-.76.28-1.58.25-2.45s-.1-1.71-.22-2.52c-.12-.81-.27-1.56-.44-2.25-.17-.69-.3-1.22-.4-1.6-.12-.51-.29-1.16-.48-1.95s-.44-1.63-.74-2.53c-.3-.89-.64-1.77-1.04-2.64-.39-.87-.86-1.63-1.39-2.28s-1.14-1.14-1.82-1.47c-.69-.32-1.46-.38-2.32-.17l-1.14.28c-.84.21-1.49.6-1.96,1.19-.46.58-.77,1.27-.95,2.07-.17.79-.24,1.65-.21,2.56.03.91.13,1.8.27,2.67.15.87.31,1.68.5,2.43.18.75.33,1.35.44,1.79s.26,1.03.43,1.76c.18.73.41,1.52.68,2.36.28.84.6,1.67.99,2.5.38.83.84,1.54,1.37,2.15.53.61,1.14,1.07,1.81,1.37.68.3,1.44.35,2.28.14l1.14-.28Z"/>
        <path class="cls-2" d="m394.35,525.18c.57-.26,1-.53,1.28-.81.28-.29.45-.58.52-.88.07-.29.07-.58,0-.85s-.16-.52-.26-.74l.3-.13,1.88,4.24-13.62,6.02-.91-2.06c-.31-.7-.34-1.5-.09-2.42.25-.92.62-1.92,1.11-3.01.49-1.09,1.04-2.23,1.64-3.42.6-1.19,1.11-2.41,1.53-3.66.42-1.25.68-2.5.77-3.77.09-1.27-.13-2.5-.65-3.69-.61-1.37-1.38-2.36-2.3-2.95-.93-.59-2.1-.57-3.53.06-1.03.46-1.82,1.12-2.37,2-.55.87-.73,1.98-.54,3.33l-2.23.99c-.03-1.63.41-3.02,1.33-4.17.91-1.16,2.1-2.06,3.57-2.71,2.02-.87,3.8-1.09,5.34-.68,1.55.41,2.67,1.4,3.36,2.97.59,1.33.8,2.67.63,4.01-.17,1.34-.54,2.65-1.12,3.94-.58,1.29-1.27,2.55-2.07,3.77s-1.53,2.39-2.2,3.49-1.17,2.13-1.5,3.08c-.34.95-.35,1.8,0,2.56l10.16-4.49Z"/>
        <path class="cls-2" d="m417.97,498.53c1.98-.9,3.79-1.18,5.42-.83,1.63.35,2.98,1.31,4.05,2.87,1.25,1.84,1.57,3.71.97,5.62-.6,1.91-2.07,3.66-4.4,5.25-2.12,1.44-4.12,2.17-6.01,2.18-1.89,0-3.47-.72-4.76-2.19l2.37-1.61c1.12,1.34,2.39,2.11,3.78,2.3,1.39.19,2.82-.2,4.27-1.19,1.59-1.06,2.51-2.36,2.74-3.9.23-1.55-.22-3.15-1.36-4.83-1.18-1.73-2.58-2.75-4.21-3.06-1.63-.31-3.31.12-5.03,1.3l-.33-.49c2.26-1.54,2.46-3.71.61-6.5-1.87-2.73-3.93-3.33-6.19-1.79-1.02.7-1.7,1.54-2.04,2.54s-.31,2.08.08,3.27l-2.02,1.38c-.32-1.47-.16-2.87.47-4.2s1.68-2.49,3.15-3.5c1.78-1.21,3.47-1.75,5.07-1.62,1.6.13,2.88.9,3.84,2.3.74,1.08,1.07,2.2.99,3.36-.08,1.16-.57,2.27-1.47,3.33Z"/>
      </g>
      <g>
        <path class="cls-2" d="m277.96,226.72c-.01-.11-.03-.21-.05-.32,1.03-5.94,3.92-11.14,8.69-15.61,4.62-4.03,9.75-7.73,15.39-11.11,2.08-1.31,4.1-2.65,6.06-4.01,1.98-1.37,3.9-2.76,5.76-4.18,3.7-2.82,6.74-6.03,9.13-9.62,1.1-1.66,1.94-3.46,2.53-5.4.69-2.26,1.04-4.71,1.04-7.36,0-7.6-1.92-13.71-5.71-18.35-.91-1.43-1.98-2.78-3.29-4.05-4.27-4.16-9.43-6.23-15.47-6.23s-11.18,2.08-15.41,6.23c-4.23,4.16-6.35,9.17-6.35,15.05s2.11,10.76,6.35,14.92c4.23,4.16,9.37,6.23,15.41,6.23,1.67,0,3.26-.17,4.8-.49-.04.09-.08.18-.12.27-1.91,3.85-4.51,7.57-7.81,11.16-2.57,2.71-7.51,7.48-14.84,14.29-3.08,2.86-5.43,5.98-7.04,9.35,0,0-1.41,4.43.92,9.22,0,0,0,0,0,0Z"/>
        <path class="cls-2" d="m276.36,246.51c0-.11-.02-.21-.03-.32,1.32-5.88,4.46-10.94,9.44-15.17,4.81-3.8,10.12-7.25,15.92-10.34,4.3-2.43,8.37-4.96,12.21-7.6,3.83-2.64,7.03-5.69,9.59-9.16,2.55-3.47,3.95-7.66,4.2-12.56.16-3.23-.05-6.21-.6-8.94-.69,1.91-1.62,3.67-2.8,5.27-2.56,3.47-5.75,6.53-9.59,9.16-1.93,1.32-3.91,2.62-5.95,3.89-.43,1.12-.93,2.19-1.5,3.21-2.09,3.75-4.87,7.34-8.35,10.76-2.7,2.58-7.87,7.1-15.53,13.55-3.22,2.7-5.71,5.7-7.49,8.99,0,0-1.63,4.35.47,9.25,0,0,0,0,0,0Z"/>
        <path class="cls-2" d="m370.52,234.57c-1.86-.5-3.68-.91-5.47-1.27-2.51-4.26-5.77-7.86-9.77-10.81-5.54-4.07-12.58-6.1-21.13-6.1h-2.64v5.28c6.37,0,11.68.86,15.91,2.58,4.24,1.72,7.7,4.32,10.38,7.8.05.07.1.13.15.2,2.58,3.44,3.88,7.63,3.88,12.57,0,.93-.05,1.83-.14,2.7-.48,4.81-2.25,8.8-5.34,11.95-1.29,1.32-2.72,2.54-4.26,3.64-2.8,2.01-6.01,3.68-9.64,4.97-3.78,1.35-7.71,2.44-11.79,3.26h0s-9.77,2.13-23.77,2.56c-3.29.1-6.81.11-10.49-.03-.09,0-.18,0-.26-.01-2.9-.03-6.43-.11-10.61-.24-5.41-.17-11.17-.61-17.3-1.32-5.68-.66-11.09-1.73-16.23-3.18-5.48-2.01-10.02-4.84-13.6-8.5-3.65-3.73-5.47-8.62-5.47-14.66,0-5.03,1.34-9.29,4.03-12.77,2.68-3.48,6.14-6.08,10.38-7.8,4.23-1.72,9.54-2.58,15.91-2.58v-5.28h-2.64c-8.55,0-15.6,2.03-21.13,6.1-5.54,4.07-9.64,9.39-12.33,15.98-2.68,6.59-4.03,13.61-4.03,21.07,0,13.5,2.56,24.61,7.67,33.34,10.65,17.19,31.99,25.79,64.03,25.79h2.64c1.03,0,2.04-.01,3.05-.03,15.21-.27,27.9-2.57,38.08-6.89,1.06-.45,2.11-.92,3.12-1.41,7.71-3.37,13.93-7.92,18.69-13.66,2.32-.83,4.7-1.6,7.14-2.29,4.71-1.47,9.21-3.09,13.5-4.86,4.29-1.77,8.05-4.08,11.27-6.93,3.22-2.85,5.46-6.64,6.73-11.38,5.02-18.8-4.49-31.4-28.51-37.81Zm12.13,33.67c-1.3,4.88-3.37,8.92-6.19,12.14-2.83,3.22-6.29,6.14-10.4,8.75-.06.04-.12.08-.18.11,3.84-8.11,5.76-18,5.76-29.7,0-6.12-.9-11.95-2.71-17.47,2.32-.88,4.78-.97,7.38-.28,3.46.92,5.9,3.62,7.32,8.09,1.42,4.47,1.09,10.59-.98,18.36Z"/>
      </g>
      <path class="cls-2" d="m573.8,300.47h-153.55v-4.21h149.33c-1.14-143.52-118.25-259.94-262.04-259.94S46.66,152.74,45.52,296.26h139.18v4.21H41.3v-2.1c0-146.81,119.44-266.25,266.25-266.25s266.25,119.44,266.25,266.25v2.1Z"/>
      <path class="cls-2" d="m307.55,583.88c-103.46,0-197.91-57.87-246.48-151.04l3.73-1.95c47.84,91.77,140.86,148.77,242.74,148.77s194.9-57.01,242.74-148.77l3.73,1.95c-48.57,93.16-143.01,151.04-246.48,151.04Z"/>
      <circle class="cls-2" cx="184.67" cy="298.37" r="2.64"/>
      <circle class="cls-2" cx="420.55" cy="298.37" r="2.64"/>
      <g>
        <g>
          <path class="cls-2" d="m192.44,409.17c-5.37,0-9.79-1.02-13.25-3.05-6.84-4.23-10.25-12.72-10.25-25.46v-1.05c0-12.74,3.42-21.22,10.25-25.46,3.47-2.03,7.88-3.05,13.25-3.05,11.34,0,17.01,4.43,17.01,13.3,0,2.23-.54,4.17-1.63,5.8-1.08,1.63-2.47,3.09-4.15,4.38s-3.47,2.53-5.38,3.73c-2.57,1.53-4.9,3.22-7,5.05-2.17,2.03-3.48,4.4-3.95,7.1.33,2.5.9,4.87,1.7,7.1.8,2.23,1.94,4.08,3.43,5.53,1.48,1.45,3.43,2.18,5.83,2.18,2,0,3.69-.53,5.08-1.6,1.38-1.07,2.42-2.44,3.1-4.13.68-1.68,1.02-3.79,1.02-6.33h2.1v1.05c0,3.4-.81,6.2-2.43,8.4-1.62,2.2-3.73,3.83-6.35,4.9-2.62,1.07-5.41,1.6-8.38,1.6Zm-5.5-22.76c.73-1.53,1.8-2.95,3.2-4.25,3.33-3.1,5.58-5.27,6.75-6.5,1.5-1.63,2.68-3.33,3.55-5.08.87-1.75,1.3-3.78,1.3-6.08,0-3.67-.58-6.4-1.73-8.2-1.15-1.8-2.54-2.7-4.18-2.7-1.8,0-3.27.71-4.4,2.13-1.13,1.42-2.03,3.22-2.68,5.4-.65,2.18-1.12,4.49-1.4,6.93-.28,2.43-.46,4.73-.52,6.88-.07,2.15-.1,3.88-.1,5.18,0,1.83.07,3.93.2,6.3Z"/>
          <path class="cls-2" d="m310.03,408.82h-16.66v-36.51c0-4.03-.22-7.37-.65-10-.83-4.67-2.67-7-5.5-7-.93,0-1.78.37-2.55,1.1-3.1,2.9-4.65,8.57-4.65,17.01.07,1.17.1,12.97.1,35.41h-16.6l.1-57.37h2.45c-.17.73-.25,1.52-.25,2.35,0,2.47.62,4.45,1.88,5.95,1.25,1.5,3.06,2.76,5.43,3.78,2.37,1.02,4.07,2.36,5.1,4.03.63-7.27,3.12-12.09,7.45-14.45,2.07-1.1,4.32-1.65,6.75-1.65,4.3,0,7.74.85,10.3,2.55,2.57,1.7,4.43,4.11,5.58,7.23,1.15,3.12,1.73,6.79,1.73,11.03v36.56Z"/>
          <path class="cls-2" d="m387.42,409.17c-5.37,0-9.79-1.02-13.25-3.05-6.84-4.23-10.25-12.72-10.25-25.46v-1.05c0-12.74,3.42-21.22,10.25-25.46,3.47-2.03,7.88-3.05,13.25-3.05,11.34,0,17.01,4.43,17.01,13.3,0,2.23-.54,4.17-1.63,5.8-1.08,1.63-2.47,3.09-4.15,4.38s-3.47,2.53-5.38,3.73c-2.57,1.53-4.9,3.22-7,5.05-2.17,2.03-3.48,4.4-3.95,7.1.33,2.5.9,4.87,1.7,7.1.8,2.23,1.94,4.08,3.43,5.53,1.48,1.45,3.43,2.18,5.83,2.18,2,0,3.69-.53,5.08-1.6,1.38-1.07,2.42-2.44,3.1-4.13.68-1.68,1.02-3.79,1.02-6.33h2.1v1.05c0,3.4-.81,6.2-2.43,8.4-1.62,2.2-3.73,3.83-6.35,4.9-2.62,1.07-5.41,1.6-8.38,1.6Zm-5.5-22.76c.73-1.53,1.8-2.95,3.2-4.25,3.33-3.1,5.58-5.27,6.75-6.5,1.5-1.63,2.68-3.33,3.55-5.08.87-1.75,1.3-3.78,1.3-6.08,0-3.67-.58-6.4-1.73-8.2-1.15-1.8-2.54-2.7-4.18-2.7-1.8,0-3.27.71-4.4,2.13-1.13,1.42-2.03,3.22-2.68,5.4-.65,2.18-1.12,4.49-1.4,6.93-.28,2.43-.46,4.73-.52,6.88-.07,2.15-.1,3.88-.1,5.18,0,1.83.07,3.93.2,6.3Z"/>
          <path class="cls-2" d="m541.58,348.75c-2.34,0-4.32-.83-5.95-2.48-1.63-1.65-2.45-3.63-2.45-5.93s.82-4.33,2.45-5.98c1.63-1.65,3.62-2.48,5.95-2.48s4.33.82,5.98,2.48c1.65,1.65,2.48,3.64,2.48,5.98s-.82,4.28-2.48,5.93-3.64,2.48-5.98,2.48Zm10.1,60.07h-16.6l.1-57.37h2.45c-.17.73-.25,1.52-.25,2.35,0,2.47.62,4.45,1.87,5.95,1.25,1.5,3.08,2.77,5.48,3.8,1.2.47,2.33,1.13,3.38,2,1.05.87,1.91,2.16,2.57,3.88.67,1.72,1,4.49,1,8.33v31.06Z"/>
        </g>
        <path class="cls-2" d="m109.27,389.93c.35-3.03.51-5.94.5-8.73-.03-7.09-1-12.8-2.89-17.13-1.56-3.6-4.11-6.16-7.66-7.69-2.15-.78-4.36-1.16-6.63-1.15-1.06,0-2.08.15-3.08.42-3.1.98-5.39,3.01-6.91,6.03-.02-15.39-.04-28.23-.07-28.75l-1.68-5.31c-.95-1.51-2.5-2.71-4.66-3.62-2.15-.9-3.8-2.04-4.95-3.39-1.15-1.35-1.73-3.15-1.75-5.39,0-.76.06-1.47.21-2.14l-2.22.02.21,94.33-.02.08h.02s0,.01,0,.01l3.6-.03,21.56-.11c2.27-.01,4.47-.41,6.62-1.21,5.52-2.48,8.79-7.89,9.81-16.24Zm-19.62,14.6c-.78.67-1.82,1.01-3.12,1.02l-3.8.02c-.06-8.52-.1-21.49-.12-34.13.07-2.13.22-3.95.46-5.43.76-4.46,2.49-6.7,5.18-6.71,3.48-.02,5.52,4.28,6.14,12.89.23,3.03.35,6.06.36,9.09.03,6.79-.65,12.61-2.05,17.47-.8,2.86-1.82,4.78-3.06,5.79Z"/>
        <path class="cls-2" d="m487.94,328.54c-4-2.55-8.31-4.9-13.03-5.36-7.6-.74-13.68,4.65-15.62,11.72-.84,3.04-1.24,6.33-1.23,9.87l.06,13.12v.92s-3.64-.07-3.64-.07l-.11,3.23,3.77.14.22,45.98,15.97-.08-.16-45.28h.59s12.91.48,12.91.48l-.28-3.87-13.08-.23c-.37-3.32-1.58-6.95-3.17-8.07-1.62-1.15-3.38-1.91-5.28-2.29-2.41-.6-4-1.4-4.77-2.39-.55-.67-.83-1.64-.83-2.89-.01-2.15.97-3.72,2.96-4.72,2.4-1.2,6.57-2.5,8.73-.62,2.54,2.22,4.19,4.32,7.77,4.96,3.67.66,7.62-.49,10.37-3.02,1.74-1.6,3.04-3.97,2.54-6.28-.51-2.36-2.66-3.95-4.7-5.25Z"/>
      </g>
    </g>
  </g>
</svg>